<?xml version="1.0" standalone="no"?>
<!DOCTYPE svg PUBLIC "-//W3C//DTD SVG 20010904//EN"
 "http://www.w3.org/TR/2001/REC-SVG-20010904/DTD/svg10.dtd">
<svg version="1.0" xmlns="http://www.w3.org/2000/svg"
 width="1126.000000pt" height="693.000000pt" viewBox="0 0 1126.000000 693.000000"
 preserveAspectRatio="xMidYMid meet">

<g transform="translate(0.000000,693.000000) scale(0.100000,-0.100000)"
fill="#000000" stroke="none">
<path d="M0 3542 l0 -3388 54 -33 c105 -63 -328 -58 5586 -64 4768 -4 5422 -3
5474 10 32 8 64 19 70 25 6 5 26 18 44 28 l32 20 0 3379 0 3379 -25 16 c-22
14 -85 16 -580 16 -623 0 -560 9 -555 -77 1 -36 -1 -43 -17 -43 -34 0 -93 85
-77 111 3 5 -1677 9 -4254 9 l-4260 0 -7 -55 c-7 -58 -17 -68 -35 -36 -13 26
-13 64 2 79 8 8 -169 11 -720 12 l-732 0 0 -3388z m1418 3298 c7 -12 10 -25 7
-29 -3 -5 9 -14 25 -20 21 -7 30 -17 30 -32 0 -12 12 -32 26 -46 18 -16 24
-31 22 -51 -2 -17 2 -27 10 -26 6 1 1879 2 4162 2 l4149 2 19 43 c21 47 47 77
66 77 16 0 19 -79 4 -97 -6 -8 -7 -24 -2 -40 4 -16 6 -46 5 -69 -2 -37 1 -42
38 -67 64 -42 95 -33 46 13 -21 19 -25 33 -25 77 0 31 4 53 11 53 26 0 47 -22
53 -55 4 -22 12 -35 19 -32 18 5 21 59 5 72 -8 5 -28 30 -45 55 -78 115 -75
153 6 72 50 -50 61 -50 61 -1 0 12 7 19 20 19 23 0 80 -73 80 -102 0 -17 15
-18 318 -18 l319 0 24 -26 24 -26 2 -3055 2 -3056 -29 -28 -28 -29 -5202 0
c-3900 0 -5207 3 -5223 11 -12 7 -25 17 -29 23 -4 6 -8 1391 -8 3077 l0 3066
23 21 c23 22 25 22 413 20 l389 -3 6 -38 c3 -21 12 -49 19 -63 10 -17 11 -27
3 -35 -8 -8 -117 -11 -345 -10 -184 1 -342 -1 -351 -5 -16 -6 -17 -187 -17
-2960 l0 -2954 5112 2 5112 3 -3 2950 c-1 1622 -5 2953 -8 2958 -2 4 -127 7
-278 7 -224 -1 -278 -4 -301 -17 -16 -8 -46 -15 -67 -15 -21 -1 -40 -5 -43 -9
-8 -14 -42 -10 -69 7 -13 9 -37 18 -52 22 -53 11 -8415 12 -8436 1 -27 -15
-45 5 -50 55 -3 29 -10 42 -25 47 -14 5 -22 17 -22 31 -1 13 -7 34 -15 48 -17
30 -19 50 -5 50 6 0 10 -6 10 -13 0 -7 13 -21 29 -30 17 -10 35 -33 42 -52 8
-22 20 -35 31 -35 24 0 23 21 -2 53 -11 14 -30 47 -43 74 -12 26 -30 59 -40
73 -20 28 -23 80 -4 80 7 0 18 -9 25 -20z m-8 -385 c0 -8 -7 -15 -15 -15 -8 0
-15 7 -15 15 0 8 7 15 15 15 8 0 15 -7 15 -15z m1776 -725 c163 -17 280 -57
399 -135 190 -126 312 -324 345 -560 31 -219 16 -412 -45 -560 -6 -16 -18 -46
-25 -65 -19 -49 -75 -135 -128 -198 -73 -85 -181 -157 -317 -212 -78 -31 -226
-54 -345 -54 -236 1 -437 68 -594 198 -59 50 -160 182 -191 251 -140 308 -123
694 42 966 125 206 351 341 618 368 113 12 139 12 241 1z m2034 -28 c128 -19
254 -83 335 -168 43 -46 92 -136 114 -209 14 -46 10 -250 -6 -305 -35 -120
-139 -243 -253 -298 -122 -60 -151 -64 -445 -71 l-270 -6 -5 -335 -5 -335
-230 0 -230 0 -3 853 c-1 589 1 859 9 873 10 20 19 20 467 16 251 -3 486 -9
522 -15z m1928 6 c17 -17 17 -337 0 -343 -7 -3 -184 -6 -393 -7 l-380 -3 -3
-157 -3 -158 366 0 365 0 5 -22 c3 -13 4 -93 3 -178 l-3 -155 -365 -5 -365 -5
-3 -172 -2 -173 392 -2 393 -3 0 -175 0 -175 -620 0 -620 0 -3 864 c-2 685 0
866 10 873 7 4 283 8 613 8 454 0 604 -3 613 -12z m619 -35 c21 -27 40 -50 43
-53 3 -3 53 -63 110 -135 57 -71 132 -164 165 -205 34 -41 92 -113 129 -160
186 -233 290 -360 298 -360 4 0 8 209 8 464 0 255 3 471 6 480 5 14 33 16 209
16 158 0 205 -3 214 -14 8 -10 10 -246 9 -872 l-3 -859 -172 -3 -171 -2 -378
472 c-208 260 -383 476 -389 480 -7 5 -12 -147 -15 -470 l-5 -477 -209 -3
c-161 -2 -211 1 -218 10 -12 19 -10 1696 3 1719 9 17 24 19 169 19 l159 0 38
-47z m-3454 -2563 c341 -84 552 -315 616 -676 14 -78 14 -317 0 -386 -38 -189
-98 -318 -208 -451 -55 -65 -216 -166 -321 -200 -197 -65 -464 -65 -660 0
-359 118 -570 462 -547 894 10 188 30 268 97 404 125 252 369 410 675 439 80
7 272 -6 348 -24z m3657 9 c132 -22 286 -75 373 -130 54 -33 64 -51 49 -82
-13 -28 -45 -99 -69 -157 -63 -148 -59 -143 -108 -110 -65 44 -174 90 -270
116 -84 22 -276 21 -330 -1 -63 -27 -100 -60 -114 -103 -36 -110 34 -158 334
-231 183 -45 223 -56 231 -64 4 -4 14 -7 21 -7 29 0 182 -83 231 -126 100 -88
137 -178 136 -334 0 -114 -14 -167 -64 -255 -57 -98 -189 -198 -315 -237 -209
-64 -515 -66 -740 -6 -140 38 -274 96 -318 137 -17 17 -17 20 12 82 16 35 47
105 69 154 22 50 46 91 54 93 8 2 43 -13 77 -33 35 -19 68 -35 75 -35 7 0 16
-4 22 -9 10 -9 82 -31 180 -56 87 -21 305 -20 372 1 77 25 113 60 119 115 4
39 1 50 -22 77 -30 36 -76 61 -145 81 -25 8 -58 18 -75 23 -16 5 -73 18 -125
28 -297 60 -483 166 -554 315 -34 73 -48 199 -32 292 35 201 200 372 421 436
69 20 151 37 205 41 65 5 225 -3 300 -15z m-6206 -25 c3 -9 6 -159 6 -335 l0
-319 339 0 c214 0 342 4 346 10 3 5 6 150 6 322 -1 172 3 319 7 326 7 9 59 12
228 10 l219 -3 0 -865 0 -865 -214 -3 c-151 -2 -218 1 -227 9 -12 10 -14 70
-14 341 1 180 -2 333 -5 338 -4 6 -133 10 -346 10 l-339 0 0 -331 c0 -208 -4
-337 -10 -350 -10 -18 -23 -19 -224 -19 -160 0 -216 3 -222 13 -5 6 -8 393 -6
870 l2 857 224 0 c195 0 225 -2 230 -16z m3901 -6 c3 -13 6 -275 8 -583 3
-541 4 -562 24 -610 29 -70 82 -127 146 -159 46 -22 67 -26 144 -26 110 0 162
20 221 84 96 104 102 153 102 794 l0 522 228 -2 227 -3 3 -505 c4 -626 -6
-736 -85 -890 -98 -191 -232 -288 -476 -344 -92 -22 -352 -22 -439 -1 -106 26
-141 37 -203 67 -132 64 -215 150 -279 289 -68 148 -69 152 -74 777 -2 309 -1
574 2 587 l6 25 220 0 c220 0 220 0 225 -22z m4303 -149 c2 -131 0 -169 -11
-177 -10 -8 -131 -13 -398 -14 l-384 -3 -3 -130 c-1 -71 0 -140 3 -152 l5 -23
353 0 c268 0 357 -3 370 -13 16 -11 17 -31 15 -177 l-3 -165 -363 -5 c-308 -4
-364 -7 -372 -20 -5 -8 -10 -83 -10 -166 0 -129 2 -153 16 -158 9 -3 186 -6
394 -6 335 0 379 -2 384 -16 3 -9 6 -87 6 -174 0 -135 -2 -159 -16 -164 -9 -3
-284 -6 -613 -6 -451 0 -600 3 -609 12 -9 9 -12 215 -12 863 0 469 3 855 7
858 3 4 284 6 622 5 l616 -3 3 -166z"/>
<path d="M2980 5369 c-162 -34 -270 -162 -305 -360 -37 -208 -4 -425 84 -553
82 -118 254 -179 402 -142 94 24 128 43 189 106 91 94 134 232 133 425 -1 189
-42 322 -128 414 -92 98 -232 139 -375 110z"/>
<path d="M4697 5353 c-4 -3 -7 -82 -7 -173 0 -132 3 -170 14 -179 10 -9 65 -9
213 -3 172 8 205 13 241 31 49 25 72 56 82 111 19 104 -35 183 -141 208 -57
13 -390 17 -402 5z"/>
<path d="M3895 2740 c-102 -49 -170 -137 -210 -270 -17 -54 -20 -94 -19 -235
1 -157 3 -176 27 -247 44 -126 99 -195 197 -245 48 -25 68 -28 164 -31 126 -4
170 8 254 70 63 47 112 120 136 203 10 33 22 73 27 89 17 54 11 286 -10 369
-37 149 -111 250 -218 299 -57 26 -72 28 -175 28 -103 -1 -118 -3 -173 -30z"/>
<path d="M10061 6904 c0 -11 3 -14 6 -6 3 7 2 16 -1 19 -3 4 -6 -2 -5 -13z"/>
<path d="M9000 10 c-10 -7 5 -10 53 -10 43 0 66 4 62 10 -8 13 -95 13 -115 0z"/>
<path d="M9670 10 c0 -6 97 -10 270 -10 173 0 270 4 270 10 0 6 -97 10 -270
10 -173 0 -270 -4 -270 -10z"/>
<path d="M10344 9 c-4 -6 133 -9 370 -8 207 1 376 5 376 10 0 12 -739 10 -746
-2z"/>
</g>
</svg>
